<svg width="42" height="42" viewBox="0 0 42 42" fill="none" xmlns="http://www.w3.org/2000/svg">
<path d="M25.375 17.5005C25.375 16.1153 27.2174 15.7482 27.7062 17.0442C28.8885 20.1794 29.75 22.984 29.75 24.5004C29.75 29.3329 25.8325 33.2504 21 33.2504C16.1675 33.2504 12.25 29.3329 12.25 24.5004C12.25 22.8713 13.2444 19.7552 14.5627 16.3397C16.2705 11.9154 17.1244 9.70321 18.1784 9.58406C18.5157 9.54593 18.8837 9.61448 19.1846 9.7715C20.125 10.2622 20.125 12.675 20.125 17.5005C20.125 18.9503 21.3003 20.1255 22.75 20.1255C24.1997 20.1255 25.375 18.9503 25.375 17.5005Z" stroke="white" stroke-width="2"/>
<path d="M19.25 33.25L18.7901 32.1003C17.9928 30.107 18.3289 27.8389 19.67 26.1625V26.1625C20.3519 25.3102 21.6481 25.3102 22.33 26.1625V26.1625C23.6711 27.8389 24.0072 30.107 23.2099 32.1003L22.75 33.25" stroke="white" stroke-width="2"/>
</svg>
