<svg width="42" height="42" viewBox="0 0 42 42" fill="none" xmlns="http://www.w3.org/2000/svg">
<g clip-path="url(#clip0_118_348)">
<path d="M21 38.5C11.3348 38.5 3.5 30.6652 3.5 21C3.5 11.3348 11.3348 3.5 21 3.5C30.6652 3.5 38.5 11.3348 38.5 21C38.5 30.6652 30.6652 38.5 21 38.5ZM21 35C24.713 35 28.274 33.525 30.8995 30.8995C33.525 28.274 35 24.713 35 21C35 17.287 33.525 13.726 30.8995 11.1005C28.274 8.475 24.713 7 21 7C17.287 7 13.726 8.475 11.1005 11.1005C8.475 13.726 7 17.287 7 21C7 24.713 8.475 28.274 11.1005 30.8995C13.726 33.525 17.287 35 21 35V35ZM17.5875 19.25H26.25V22.75H17.5875C17.7391 23.4943 18.0819 24.1864 18.5821 24.758C19.0824 25.3296 19.7228 25.7612 20.4404 26.0102C21.1581 26.2591 21.9282 26.317 22.675 26.178C23.4218 26.039 24.1195 25.708 24.6995 25.2175L27.6745 27.2003C26.6522 28.3131 25.3313 29.1084 23.8695 29.4911C22.4076 29.8738 20.8665 29.8278 19.43 29.3587C17.9936 28.8895 16.7224 28.017 15.7683 26.8451C14.8142 25.6733 14.2173 24.2517 14.049 22.75H12.25V19.25H14.0473C14.215 17.7475 14.8117 16.3251 15.766 15.1526C16.7204 13.98 17.9921 13.107 19.4292 12.6377C20.8664 12.1685 22.4082 12.1228 23.8706 12.5062C25.333 12.8896 26.6542 13.6858 27.6762 14.7997L24.6995 16.7825C24.1195 16.292 23.4218 15.961 22.675 15.822C21.9282 15.683 21.1581 15.7409 20.4404 15.9898C19.7228 16.2388 19.0824 16.6704 18.5821 17.242C18.0819 17.8136 17.7391 18.5057 17.5875 19.25Z" fill="white"/>
</g>
<defs>
<clipPath id="clip0_118_348">
<rect width="42" height="42" fill="white"/>
</clipPath>
</defs>
</svg>
