<svg width="42" height="42" viewBox="0 0 42 42" fill="none" xmlns="http://www.w3.org/2000/svg">
<path d="M15.3799 25.15H20V34.4799L20 34.533C19.9999 34.9321 19.9999 35.3117 20.0303 35.5942C20.0456 35.7369 20.0769 35.9507 20.1698 36.1586C20.2728 36.389 20.5127 36.7325 20.9811 36.8357C21.4495 36.9388 21.8116 36.7279 22.0018 36.5621C22.1735 36.4125 22.2917 36.2316 22.3656 36.1086C22.5118 35.865 22.6713 35.5205 22.8389 35.1582L22.8612 35.1101L29.3425 21.1104L29.3718 21.0471C29.6424 20.4628 29.8909 19.9262 30.0232 19.4771C30.165 18.9954 30.2499 18.367 29.8704 17.7731C29.4909 17.1792 28.8849 16.9922 28.3882 16.9185C27.9251 16.8498 27.3338 16.8499 26.6898 16.85C26.6667 16.85 26.6434 16.85 26.6201 16.85H22V7.52012C22 7.50239 22 7.48469 22 7.46702C22.0001 7.06789 22.0001 6.6883 21.9697 6.4058C21.9544 6.26307 21.9231 6.0493 21.8302 5.84138C21.7272 5.61098 21.4873 5.26749 21.0189 5.16432C20.5505 5.06116 20.1884 5.27206 19.9982 5.43788C19.8265 5.58752 19.7083 5.76837 19.6344 5.89144C19.4882 6.13504 19.3287 6.47954 19.1611 6.84178C19.1537 6.8578 19.1462 6.87386 19.1388 6.88994L12.6575 20.8896L13.5649 21.3098L12.6575 20.8896C12.6477 20.9108 12.6379 20.9319 12.6282 20.9529C12.3575 21.5372 12.1091 22.0738 11.9768 22.5229C11.835 23.0046 11.7501 23.633 12.1296 24.2269C12.5091 24.8208 13.1151 25.0078 13.6118 25.0815C14.0749 25.1502 14.6662 25.1501 15.3102 25.15C15.3333 25.15 15.3566 25.15 15.3799 25.15ZM20.6247 35.1197C20.6247 35.1197 20.6253 35.1188 20.6266 35.1171C20.6253 35.1189 20.6247 35.1198 20.6247 35.1197ZM22.0255 35.4282C22.0255 35.4283 22.0253 35.4273 22.0249 35.4253C22.0253 35.4272 22.0255 35.4282 22.0255 35.4282ZM21.3753 6.88029C21.3753 6.88033 21.3747 6.88115 21.3735 6.88268C21.3747 6.88103 21.3753 6.88026 21.3753 6.88029ZM19.9745 6.57175C19.9745 6.57173 19.9747 6.57268 19.9751 6.5747C19.9747 6.57279 19.9745 6.57178 19.9745 6.57175Z" stroke="white" stroke-width="2"/>
</svg>
