<svg width="29" height="29" viewBox="0 0 29 29" fill="none" xmlns="http://www.w3.org/2000/svg">
<path d="M11.0555 9.46284C10.8487 8.77347 10.7453 8.42879 10.7157 8.15202C10.5494 6.59538 11.608 5.17256 13.1468 4.88455C13.4204 4.83334 13.7802 4.83334 14.5 4.83334V4.83334C15.2197 4.83334 15.5795 4.83334 15.8531 4.88455C17.3919 5.17256 18.4505 6.59538 18.2842 8.15202C18.2547 8.42879 18.1513 8.77347 17.9444 9.46284L16.0555 15.7593C15.9278 16.185 15.864 16.3978 15.7351 16.5537C15.6325 16.6779 15.5014 16.7754 15.3529 16.8381C15.1665 16.9167 14.9443 16.9167 14.5 16.9167V16.9167C14.0556 16.9167 13.8334 16.9167 13.647 16.8381C13.4986 16.7754 13.3674 16.6779 13.2648 16.5537C13.136 16.3978 13.0721 16.185 12.9444 15.7593L11.0555 9.46284Z" stroke="white" stroke-width="2"/>
<circle cx="14.5" cy="22.9583" r="2.41667" stroke="white" stroke-width="2"/>
</svg>
