<svg width="29" height="29" viewBox="0 0 29 29" fill="none" xmlns="http://www.w3.org/2000/svg">
<path d="M7.25 13.7402C7.25 12.9227 7.25 12.5139 7.40224 12.1464C7.55448 11.7789 7.84351 11.4898 8.42157 10.9118L9.70343 9.62991C10.2815 9.05185 10.5705 8.76281 10.9381 8.61057C11.3056 8.45833 11.7144 8.45833 12.5319 8.45833H16.4681C17.2856 8.45833 17.6944 8.45833 18.0619 8.61057C18.4295 8.76281 18.7185 9.05185 19.2966 9.62991L20.5784 10.9118C21.1565 11.4898 21.4455 11.7789 21.5978 12.1464C21.75 12.5139 21.75 12.9227 21.75 13.7402V20.1667C21.75 22.0523 21.75 22.9951 21.1642 23.5809C20.5784 24.1667 19.6356 24.1667 17.75 24.1667H11.25C9.36438 24.1667 8.42157 24.1667 7.83579 23.5809C7.25 22.9951 7.25 22.0523 7.25 20.1667V13.7402Z" stroke="white" stroke-width="2"/>
<path d="M10.875 8.45833L7.38868 6.13412C7.3047 6.07813 7.1953 6.07813 7.11133 6.13412L3.87873 8.28918C3.74747 8.37669 3.72908 8.56241 3.84063 8.67397L6.99975 11.8331C7.15998 11.9933 7.25 12.2106 7.25 12.4372V12.4372C7.25 12.9091 7.63254 13.2917 8.10442 13.2917H20.8956C21.3675 13.2917 21.75 12.9091 21.75 12.4372V12.4372C21.75 12.2106 21.84 11.9933 22.0003 11.8331L25.1594 8.67397C25.2709 8.56241 25.2525 8.37669 25.1213 8.28918L21.8887 6.13412C21.8047 6.07813 21.6953 6.07813 21.6113 6.13412L18.125 8.45833" stroke="white" stroke-width="2" stroke-linecap="round"/>
</svg>
