<svg width="37" height="37" viewBox="0 0 37 37" fill="none" xmlns="http://www.w3.org/2000/svg">
<path d="M21.2895 4.85148L22.2846 4.75303L22.2846 4.75303L21.2895 4.85148ZM20.8765 3.30729L20.2052 4.04839L20.2052 4.04839L20.8765 3.30729ZM21.3694 5.65938L20.3743 5.75783L20.3743 5.75783L21.3694 5.65938ZM22.1687 8.35487L22.5495 7.43019L22.5495 7.43019L22.1687 8.35487ZM24.6343 7.00371L23.997 6.23309L23.997 6.23309L24.6343 7.00371ZM25.2156 6.52299L24.5783 5.75237L24.5783 5.75237L25.2156 6.52299ZM27.912 6.65761L28.6228 5.9543L28.6228 5.9543L27.912 6.65761ZM29.631 8.39515L28.9201 9.09847L28.9239 9.10226L29.631 8.39515ZM29.631 8.39516L30.3419 7.69185L30.3381 7.68806L29.631 8.39516ZM30.5486 9.68521L31.5473 9.63546L31.5473 9.63546L30.5486 9.68521ZM29.7637 11.0601L30.541 11.6893L30.541 11.6893L29.7637 11.0601ZM29.2208 11.7309L28.4435 11.1017L28.4435 11.1017L29.2208 11.7309ZM27.9109 14.1827L28.834 13.7981L28.834 13.7981L27.9109 14.1827ZM30.5742 14.9791L30.4736 15.974L30.4736 15.974L30.5742 14.9791ZM31.3757 15.0601L31.4763 14.0652L31.4763 14.0652L31.3757 15.0601ZM32.9164 15.4753L32.1746 16.1459L32.1746 16.1459L32.9164 15.4753ZM32.9164 21.1053L32.1746 20.4347L32.1746 20.4347L32.9164 21.1053ZM31.3757 21.5205L31.2752 20.5256L31.2752 20.5256L31.3757 21.5205ZM30.5747 21.6015L30.4742 20.6066L30.4742 20.6066L30.5747 21.6015ZM27.9115 22.3979L26.9884 22.0132L26.9884 22.0132L27.9115 22.3979ZM29.2213 24.8497L29.9986 24.2205L29.9986 24.2205L29.2213 24.8497ZM29.7638 25.5199L28.9865 26.149L28.9865 26.149L29.7638 25.5199ZM30.5486 26.8947L29.5499 26.845L29.5499 26.845L30.5486 26.8947ZM29.6311 28.1848L28.9202 27.4815L28.8524 27.5499L28.799 27.6301L29.6311 28.1848ZM29.631 28.1848L30.3419 28.8881L30.4097 28.8196L30.4631 28.7395L29.631 28.1848ZM27.912 29.9223L27.2011 29.219L27.2011 29.219L27.912 29.9223ZM25.2157 30.057L25.853 29.2863L25.853 29.2863L25.2157 30.057ZM24.6344 29.5762L25.2717 28.8056L25.2717 28.8056L24.6344 29.5762ZM22.1688 28.2251L22.5496 29.1498L22.5496 29.1498L22.1688 28.2251ZM21.3695 30.9206L22.3646 31.019L22.3646 31.019L21.3695 30.9206ZM21.2895 31.7291L20.2943 31.6307L21.2895 31.7291ZM14.901 31.7291L15.8961 31.6307L15.8961 31.6307L14.901 31.7291ZM14.821 30.9212L13.8259 31.0196L13.8259 31.0196L14.821 30.9212ZM11.5561 29.5768L10.9188 28.8062L10.9188 28.8062L11.5561 29.5768ZM10.9747 30.0576L11.612 30.8283L11.612 30.8283L10.9747 30.0576ZM8.27837 29.923L7.56748 30.6263L7.56748 30.6263L8.27837 29.923ZM6.55936 28.1855L5.84847 28.8888L5.84847 28.8888L6.55936 28.1855ZM5.64176 26.8954L4.643 26.9452L4.643 26.9452L5.64176 26.8954ZM6.4266 25.5205L5.64933 24.8914L5.64932 24.8914L6.4266 25.5205ZM6.96959 24.8497L6.20922 24.2002L6.20064 24.2103L6.19232 24.2206L6.96959 24.8497ZM6.9696 24.8497L7.72998 25.4992L7.73856 25.4891L7.74688 25.4789L6.9696 24.8497ZM8.27943 22.3979L9.20251 22.0133L9.20251 22.0133L8.27943 22.3979ZM5.61618 21.6015L5.51562 22.5965L5.51562 22.5965L5.61618 21.6015ZM4.81474 21.5205L4.91531 20.5256L4.9153 20.5256L4.81474 21.5205ZM3.27406 21.1053L4.01587 20.4347L3.27406 21.1053ZM3.01587 19.5307L2.01587 19.5307L3.01587 19.5307ZM3.01587 17.05L4.01587 17.05L3.01587 17.05ZM3.27406 15.4753L2.53225 14.8047L2.53225 14.8047L3.27406 15.4753ZM4.81474 15.0601L4.71417 14.0652L4.71417 14.0652L4.81474 15.0601ZM5.61675 14.979L5.51619 13.9841L5.51619 13.9841L5.61675 14.979ZM8.28 14.1827L7.35692 13.798L7.35692 13.798L8.28 14.1827ZM6.97017 11.7308L6.19289 12.36L6.19289 12.36L6.97017 11.7308ZM6.42667 11.0594L7.20394 10.4302L7.20394 10.4302L6.42667 11.0594ZM5.64183 9.68452L4.64307 9.63477L4.64307 9.63477L5.64183 9.68452ZM6.55943 8.39446L5.84855 7.69115L6.55943 8.39446ZM8.27845 6.65692L8.98933 7.36022L8.98933 7.36022L8.27845 6.65692ZM9.58278 5.71122L9.53291 4.71246L9.53291 4.71246L9.58278 5.71122ZM10.9748 6.5223L10.3375 7.29291L10.3375 7.29291L10.9748 6.5223ZM11.5562 7.00311L12.1935 6.2325L12.1935 6.2325L11.5562 7.00311ZM14.0218 8.35427L14.4025 9.27896L14.4025 9.27896L14.0218 8.35427ZM14.8211 5.6588L15.8162 5.75725L15.8211 5.70814V5.6588H14.8211ZM14.8211 5.65879L13.826 5.56033L13.8211 5.60944V5.65879H14.8211ZM14.901 4.85148L15.8961 4.94993L15.901 4.90083V4.85148H14.901ZM14.901 4.85147L13.9058 4.75302L13.901 4.80212V4.85147H14.901ZM15.3139 3.30729L15.9853 4.04839L15.9853 4.04839L15.3139 3.30729ZM22.2846 4.75303C22.2449 4.35122 22.2076 3.9542 22.1328 3.63024C22.0516 3.27846 21.9005 2.8856 21.5479 2.56619L20.2052 4.04839C20.1384 3.98787 20.1514 3.93868 20.184 4.08006C20.2231 4.24926 20.2493 4.49488 20.2943 4.94993L22.2846 4.75303ZM22.3646 5.56093L22.2846 4.75303L20.2943 4.94993L20.3743 5.75783L22.3646 5.56093ZM22.5495 7.43019C22.7249 7.50241 22.6796 7.6455 22.5919 7.29524C22.5041 6.94442 22.4493 6.41703 22.3646 5.56093L20.3743 5.75783C20.4523 6.5463 20.5195 7.25234 20.6518 7.78096C20.7843 8.31014 21.0573 8.97869 21.788 9.27955L22.5495 7.43019ZM23.997 6.23309C23.3341 6.78135 22.9238 7.11722 22.6144 7.30449C22.3055 7.49145 22.3741 7.35797 22.5495 7.43019L21.788 9.27955C22.5187 9.58041 23.1833 9.29795 23.65 9.01547C24.1162 8.7333 24.661 8.27927 25.2716 7.77432L23.997 6.23309ZM24.5783 5.75237L23.997 6.23309L25.2716 7.77432L25.8529 7.2936L24.5783 5.75237ZM26.6575 4.71316C26.1787 4.68925 25.7917 4.86273 25.4841 5.05649C25.2008 5.235 24.8923 5.4927 24.5783 5.75237L25.8529 7.2936C26.2083 6.99964 26.4019 6.84213 26.5502 6.74866C26.6744 6.67046 26.6486 6.7152 26.5578 6.71067L26.6575 4.71316ZM28.6228 5.9543C28.3363 5.66465 28.0549 5.37749 27.7908 5.17166C27.5041 4.94822 27.1363 4.73706 26.6575 4.71316L26.5578 6.71067C26.4669 6.70613 26.4457 6.65904 26.5615 6.74922C26.6998 6.857 26.8767 7.03301 27.2011 7.36091L28.6228 5.9543ZM30.3419 7.69185L28.6228 5.9543L27.2011 7.36091L28.9201 9.09846L30.3419 7.69185ZM30.3381 7.68806L30.3381 7.68804L28.9239 9.10226L28.9239 9.10227L30.3381 7.68806ZM31.5473 9.63546C31.5239 9.16469 31.3192 8.80139 31.1019 8.51692C30.9018 8.25506 30.6227 7.97572 30.3419 7.69186L28.9201 9.09847C29.2383 9.4201 29.4085 9.59489 29.5127 9.73124C29.5996 9.84497 29.5542 9.82395 29.5498 9.73497L31.5473 9.63546ZM30.541 11.6893C30.7922 11.3789 31.0422 11.0732 31.2152 10.7927C31.4033 10.4881 31.5708 10.1062 31.5473 9.63546L29.5498 9.73497C29.5454 9.646 29.5884 9.62057 29.5133 9.74238C29.4231 9.88841 29.2711 10.0793 28.9865 10.4309L30.541 11.6893ZM29.998 12.3601L30.541 11.6893L28.9865 10.4309L28.4435 11.1017L29.998 12.3601ZM28.834 13.7981C28.9058 13.9705 28.776 14.0391 28.956 13.7344C29.1372 13.4277 29.4636 13.0203 29.998 12.3601L28.4435 11.1017C27.9518 11.7091 27.5086 12.2525 27.2341 12.7171C26.9584 13.1838 26.6867 13.8446 26.9878 14.5673L28.834 13.7981ZM30.6747 13.9842C29.8296 13.8987 29.3105 13.8436 28.9651 13.7563C28.622 13.6695 28.7622 13.6257 28.834 13.7981L26.9878 14.5673C27.289 15.2901 27.9495 15.5624 28.475 15.6953C28.9982 15.8276 29.6961 15.8954 30.4736 15.974L30.6747 13.9842ZM31.4763 14.0652L30.6747 13.9842L30.4736 15.974L31.2751 16.055L31.4763 14.0652ZM33.6582 14.8047C33.3397 14.4524 32.9478 14.3009 32.5967 14.2191C32.2734 14.1438 31.8772 14.1057 31.4763 14.0652L31.2751 16.055C31.7292 16.1009 31.9742 16.1276 32.143 16.167C32.284 16.1998 32.2349 16.2127 32.1746 16.1459L33.6582 14.8047ZM34.1746 17.05C34.1746 16.647 34.1765 16.249 34.1341 15.9197C34.0881 15.5622 33.9767 15.157 33.6582 14.8047L32.1746 16.1459C32.1143 16.0792 32.132 16.0317 32.1505 16.1753C32.1726 16.3471 32.1746 16.5936 32.1746 17.05H34.1746ZM34.1746 19.5307V17.05H32.1746V19.5307H34.1746ZM33.6582 21.7759C33.9767 21.4236 34.0881 21.0184 34.1341 20.6609C34.1765 20.3317 34.1746 19.9336 34.1746 19.5307H32.1746C32.1746 19.9871 32.1726 20.2335 32.1505 20.4054C32.132 20.5489 32.1143 20.5014 32.1746 20.4347L33.6582 21.7759ZM31.4763 22.5155C31.8772 22.4749 32.2734 22.4368 32.5967 22.3615C32.9478 22.2798 33.3397 22.1282 33.6582 21.7759L32.1746 20.4347C32.2349 20.368 32.284 20.3808 32.143 20.4137C31.9742 20.453 31.7292 20.4797 31.2752 20.5256L31.4763 22.5155ZM30.6753 22.5964L31.4763 22.5155L31.2752 20.5256L30.4742 20.6066L30.6753 22.5964ZM28.8346 22.7825C28.7627 22.9549 28.6226 22.911 28.9657 22.8243C29.3111 22.737 29.8302 22.6818 30.6753 22.5964L30.4742 20.6066C29.6966 20.6851 28.9988 20.753 28.4755 20.8853C27.95 21.0181 27.2896 21.2905 26.9884 22.0132L28.8346 22.7825ZM29.9986 24.2205C29.4642 23.5603 29.1378 23.1529 28.9566 22.8462C28.7766 22.5414 28.9064 22.6101 28.8346 22.7825L26.9884 22.0132C26.6873 22.736 26.9589 23.3967 27.2347 23.8634C27.5092 24.3281 27.9524 24.8714 28.4441 25.4788L29.9986 24.2205ZM30.5411 24.8907L29.9986 24.2205L28.4441 25.4788L28.9865 26.149L30.5411 24.8907ZM31.5474 26.9445C31.5709 26.4737 31.4033 26.0919 31.2153 25.7872C31.0422 25.5068 30.7923 25.2011 30.5411 24.8907L28.9865 26.149C29.2712 26.5007 29.4232 26.6915 29.5133 26.8376C29.5885 26.9594 29.5454 26.9339 29.5499 26.845L31.5474 26.9445ZM30.3419 28.8881C30.6228 28.6042 30.9018 28.3249 31.1019 28.063C31.3193 27.7786 31.5239 27.4153 31.5474 26.9445L29.5499 26.845C29.5543 26.756 29.5997 26.735 29.5128 26.8487C29.4086 26.985 29.2384 27.1598 28.9202 27.4815L30.3419 28.8881ZM30.4631 28.7395L30.4631 28.7395L28.799 27.6301L28.799 27.6301L30.4631 28.7395ZM28.6229 30.6256L30.3419 28.8881L28.9202 27.4815L27.2011 29.219L28.6229 30.6256ZM26.6576 31.8668C27.1363 31.8429 27.5042 31.6317 27.7909 31.4083C28.055 31.2025 28.3364 30.9153 28.6229 30.6256L27.2011 29.219C26.8767 29.5469 26.6998 29.7229 26.5615 29.8307C26.4458 29.9209 26.467 29.8738 26.5578 29.8693L26.6576 31.8668ZM24.5784 30.8276C24.8923 31.0872 25.2009 31.3449 25.4842 31.5235C25.7918 31.7172 26.1788 31.8907 26.6576 31.8668L26.5578 29.8693C26.6487 29.8647 26.6744 29.9095 26.5503 29.8313C26.4019 29.7378 26.2084 29.5803 25.853 29.2863L24.5784 30.8276ZM23.9971 30.3468L24.5784 30.8276L25.853 29.2863L25.2717 28.8056L23.9971 30.3468ZM22.5496 29.1498C22.3742 29.222 22.3055 29.0885 22.6144 29.2755C22.9238 29.4627 23.3341 29.7986 23.9971 30.3468L25.2717 28.8056C24.6611 28.3007 24.1163 27.8466 23.6501 27.5645C23.1834 27.282 22.5188 26.9995 21.7881 27.3004L22.5496 29.1498ZM22.3646 31.019C22.4493 30.1629 22.5042 29.6355 22.592 29.2847C22.6797 28.9344 22.725 29.0775 22.5496 29.1498L21.7881 27.3004C21.0574 27.6013 20.7844 28.2698 20.6519 28.799C20.5195 29.3276 20.4523 30.0336 20.3743 30.8221L22.3646 31.019ZM22.2846 31.8276L22.3646 31.019L20.3743 30.8221L20.2943 31.6307L22.2846 31.8276ZM21.5479 34.0144C21.9005 33.695 22.0516 33.3022 22.1328 32.9504C22.2076 32.6264 22.2449 32.2294 22.2846 31.8276L20.2943 31.6307C20.2493 32.0857 20.2231 32.3314 20.184 32.5006C20.1514 32.6419 20.1384 32.5927 20.2052 32.5322L21.5479 34.0144ZM19.2992 34.5322C19.703 34.5322 20.1017 34.5342 20.4315 34.4917C20.7895 34.4455 21.1954 34.3338 21.5479 34.0144L20.2052 32.5322C20.2719 32.4717 20.3196 32.4895 20.1757 32.5081C20.0035 32.5303 19.7565 32.5322 19.2992 32.5322V34.5322ZM16.8913 34.5322H19.2992V32.5322H16.8913V34.5322ZM14.6425 34.0144C14.9951 34.3338 15.4009 34.4455 15.759 34.4917C16.0887 34.5342 16.4875 34.5322 16.8913 34.5322V32.5322C16.434 32.5322 16.187 32.5303 16.0147 32.5081C15.8708 32.4895 15.9185 32.4717 15.9853 32.5322L14.6425 34.0144ZM13.9058 31.8276C13.9456 32.2294 13.9829 32.6264 14.0577 32.9504C14.1389 33.3022 14.2899 33.695 14.6425 34.0144L15.9853 32.5322C16.0521 32.5927 16.0391 32.6419 16.0064 32.5006C15.9674 32.3314 15.9411 32.0857 15.8961 31.6307L13.9058 31.8276ZM13.8259 31.0196L13.9058 31.8276L15.8961 31.6307L15.8162 30.8227L13.8259 31.0196ZM13.641 29.1504C13.4656 29.0781 13.5108 28.935 13.5985 29.2853C13.6864 29.6361 13.7412 30.1635 13.8259 31.0196L15.8162 30.8227C15.7382 30.0342 15.671 29.3282 15.5386 28.7996C15.4062 28.2704 15.1331 27.6018 14.4024 27.301L13.641 29.1504ZM12.1934 30.3474C12.8564 29.7992 13.2667 29.4633 13.5761 29.2761C13.885 29.0891 13.8164 29.2226 13.641 29.1504L14.4024 27.301C13.6718 27.0001 13.0071 27.2826 12.5404 27.5651C12.0743 27.8472 11.5294 28.3013 10.9188 28.8062L12.1934 30.3474ZM11.612 30.8283L12.1934 30.3474L10.9188 28.8062L10.3374 29.287L11.612 30.8283ZM9.53284 31.8675C10.0116 31.8914 10.3986 31.7179 10.7062 31.5241C10.9895 31.3456 11.2981 31.0879 11.612 30.8283L10.3374 29.287C9.982 29.581 9.78845 29.7385 9.6401 29.832C9.51596 29.9102 9.54169 29.8654 9.63257 29.87L9.53284 31.8675ZM7.56748 30.6263C7.85405 30.916 8.13538 31.2031 8.39953 31.409C8.68625 31.6324 9.05408 31.8436 9.53284 31.8675L9.63257 29.87C9.72345 29.8745 9.74459 29.9216 9.62887 29.8314C9.49056 29.7236 9.31367 29.5476 8.98926 29.2197L7.56748 30.6263ZM5.84847 28.8888L7.56748 30.6263L8.98926 29.2197L7.27025 27.4822L5.84847 28.8888ZM4.643 26.9452C4.66645 27.416 4.8711 27.7793 5.08847 28.0637C5.28857 28.3256 5.56763 28.6049 5.84847 28.8888L7.27025 27.4822C6.95204 27.1605 6.78182 26.9857 6.67763 26.8494C6.59072 26.7357 6.63609 26.7567 6.64052 26.8457L4.643 26.9452ZM5.64932 24.8914C5.39809 25.2018 5.14817 25.5075 4.97509 25.7879C4.78707 26.0926 4.61955 26.4744 4.643 26.9452L6.64052 26.8457C6.64496 26.9346 6.6019 26.9601 6.67707 26.8383C6.76719 26.6922 6.9192 26.5014 7.20387 26.1497L5.64932 24.8914ZM6.19232 24.2206L5.64933 24.8914L7.20387 26.1497L7.74686 25.4789L6.19232 24.2206ZM6.20923 24.2002L6.20922 24.2002L7.72997 25.4992L7.72998 25.4992L6.20923 24.2002ZM7.35635 22.7825C7.28452 22.6101 7.41433 22.5415 7.23431 22.8462C7.05312 23.1529 6.72674 23.5603 6.19233 24.2205L7.74688 25.4789C8.23856 24.8715 8.68175 24.3282 8.95628 23.8635C9.23198 23.3968 9.50365 22.736 9.20251 22.0133L7.35635 22.7825ZM5.51562 22.5965C6.36072 22.6819 6.87983 22.737 7.2252 22.8243C7.56833 22.9111 7.42818 22.9549 7.35635 22.7825L9.20251 22.0133C8.90136 21.2905 8.2409 21.0182 7.71539 20.8853C7.19213 20.7531 6.49427 20.6852 5.71675 20.6066L5.51562 22.5965ZM4.71417 22.5155L5.51562 22.5965L5.71675 20.6066L4.91531 20.5256L4.71417 22.5155ZM2.53225 21.7759C2.85075 22.1282 3.24266 22.2797 3.59374 22.3615C3.91703 22.4368 4.31326 22.4749 4.71418 22.5155L4.9153 20.5256C4.46122 20.4797 4.21621 20.453 4.04745 20.4137C3.90649 20.3808 3.95556 20.368 4.01587 20.4347L2.53225 21.7759ZM2.01587 19.5307C2.01587 19.9336 2.01393 20.3317 2.05634 20.6609C2.10239 21.0184 2.21375 21.4236 2.53225 21.7759L4.01587 20.4347C4.07618 20.5014 4.05844 20.5489 4.03995 20.4054C4.01781 20.2335 4.01587 19.9871 4.01587 19.5307L2.01587 19.5307ZM2.01587 17.05L2.01587 19.5307L4.01587 19.5307L4.01587 17.05L2.01587 17.05ZM2.53225 14.8047C2.21375 15.157 2.10239 15.5622 2.05634 15.9197C2.01393 16.249 2.01587 16.647 2.01587 17.05L4.01587 17.05C4.01587 16.5936 4.01781 16.3471 4.03995 16.1753C4.05844 16.0317 4.07618 16.0792 4.01587 16.1459L2.53225 14.8047ZM4.71417 14.0652C4.31326 14.1057 3.91703 14.1438 3.59374 14.2191C3.24266 14.3009 2.85075 14.4524 2.53225 14.8047L4.01587 16.1459C3.95556 16.2127 3.90649 16.1998 4.04745 16.167C4.21621 16.1276 4.46122 16.1009 4.9153 16.055L4.71417 14.0652ZM5.51619 13.9841L4.71417 14.0652L4.9153 16.055L5.71732 15.974L5.51619 13.9841ZM7.35692 13.798C7.42875 13.6257 7.56891 13.6695 7.22577 13.7562C6.8804 13.8435 6.36129 13.8987 5.51619 13.9841L5.71732 15.974C6.49484 15.8954 7.1927 15.8275 7.71596 15.6952C8.24147 15.5624 8.90193 15.29 9.20308 14.5673L7.35692 13.798ZM6.19289 12.36C6.72731 13.0202 7.05368 13.4277 7.23488 13.7344C7.4149 14.0391 7.28509 13.9704 7.35692 13.798L9.20308 14.5673C9.50422 13.8445 9.23254 13.1838 8.95684 12.7171C8.68232 12.2524 8.23912 11.7091 7.74744 11.1017L6.19289 12.36ZM5.6494 11.6886L6.19289 12.36L7.74744 11.1017L7.20394 10.4302L5.6494 11.6886ZM4.64307 9.63477C4.61962 10.1055 4.78714 10.4874 4.97516 10.792C5.14824 11.0725 5.39816 11.3782 5.6494 11.6886L7.20394 10.4302C6.91927 10.0786 6.76726 9.88771 6.67714 9.74168C6.60197 9.61988 6.64503 9.64531 6.64059 9.73428L4.64307 9.63477ZM5.84855 7.69115C5.5677 7.97502 5.28864 8.25437 5.08854 8.51622C4.87117 8.80069 4.66652 9.16399 4.64307 9.63477L6.64059 9.73428C6.63616 9.82326 6.59079 9.84428 6.6777 9.73055C6.78189 9.5942 6.95211 9.41941 7.27032 9.09777L5.84855 7.69115ZM7.56756 5.95361L5.84855 7.69115L7.27032 9.09777L8.98933 7.36022L7.56756 5.95361ZM9.53291 4.71246C9.05415 4.73637 8.68632 4.94753 8.3996 5.17096C8.13545 5.3768 7.85412 5.66396 7.56756 5.95361L8.98933 7.36022C9.31374 7.03232 9.49063 6.85631 9.62894 6.74853C9.74467 6.65835 9.72352 6.70544 9.63264 6.70998L9.53291 4.71246ZM11.6121 5.75168C11.2981 5.49201 10.9896 5.23431 10.7063 5.0558C10.3987 4.86204 10.0117 4.68856 9.53291 4.71246L9.63264 6.70998C9.54176 6.71451 9.51603 6.66976 9.64017 6.74797C9.78853 6.84144 9.98207 6.99895 10.3375 7.29291L11.6121 5.75168ZM12.1935 6.2325L11.6121 5.75168L10.3375 7.29291L10.9189 7.77373L12.1935 6.2325ZM13.641 7.42959C13.8164 7.35737 13.885 7.49085 13.5761 7.30389C13.2668 7.11662 12.8565 6.78076 12.1935 6.2325L10.9189 7.77373C11.5295 8.27867 12.0743 8.7327 12.5405 9.01488C13.0072 9.29735 13.6718 9.57982 14.4025 9.27896L13.641 7.42959ZM13.826 5.56034C13.7413 6.41644 13.6864 6.94383 13.5986 7.29465C13.5109 7.6449 13.4656 7.50182 13.641 7.42959L14.4025 9.27896C15.1332 8.9781 15.4062 8.30955 15.5387 7.78036C15.6711 7.25175 15.7382 6.54571 15.8162 5.75725L13.826 5.56034ZM13.8211 5.65879V5.6588H15.8211V5.65879H13.8211ZM13.9058 4.75303L13.826 5.56033L15.8162 5.75724L15.8961 4.94993L13.9058 4.75303ZM13.901 4.85147V4.85148H15.901V4.85147H13.901ZM14.6425 2.56619C14.2899 2.8856 14.1389 3.27846 14.0577 3.63024C13.9829 3.95419 13.9456 4.35121 13.9058 4.75302L15.8961 4.94992C15.9411 4.49487 15.9674 4.24925 16.0064 4.08006C16.0391 3.93868 16.0521 3.98787 15.9853 4.04839L14.6425 2.56619ZM16.8913 2.04839C16.4875 2.04839 16.0887 2.04644 15.759 2.08896C15.4009 2.13513 14.9951 2.24678 14.6425 2.56619L15.9853 4.04839C15.9185 4.1089 15.8708 4.09109 16.0147 4.07254C16.187 4.05033 16.434 4.04839 16.8913 4.04839V2.04839ZM19.2992 2.04839H16.8913V4.04839H19.2992V2.04839ZM21.5479 2.56619C21.1954 2.24678 20.7896 2.13513 20.4315 2.08896C20.1017 2.04644 19.703 2.04839 19.2992 2.04839V4.04839C19.7565 4.04839 20.0035 4.05033 20.1757 4.07254C20.3196 4.09109 20.2719 4.1089 20.2052 4.04839L21.5479 2.56619ZM23.127 18.2903C23.127 21.1153 20.8641 23.3871 18.0952 23.3871V25.3871C21.9888 25.3871 25.127 22.1996 25.127 18.2903H23.127ZM18.0952 13.1935C20.8641 13.1935 23.127 15.4653 23.127 18.2903H25.127C25.127 14.381 21.9888 11.1935 18.0952 11.1935V13.1935ZM13.0635 18.2903C13.0635 15.4653 15.3264 13.1935 18.0952 13.1935V11.1935C14.2016 11.1935 11.0635 14.381 11.0635 18.2903H13.0635ZM18.0952 23.3871C15.3264 23.3871 13.0635 21.1153 13.0635 18.2903H11.0635C11.0635 22.1996 14.2016 25.3871 18.0952 25.3871V23.3871Z" fill="white"/>
</svg>
