<svg width="28" height="28" viewBox="0 0 28 28" fill="none" xmlns="http://www.w3.org/2000/svg">
<path d="M14.7248 5.11552L13.7682 5.40806L13.7682 5.40806L14.7248 5.11552ZM14.443 4.38867L15.2438 3.78706L15.2438 3.78706L14.443 4.38867ZM15.2327 6.37971L14.5299 7.09378L14.5299 7.09378L15.2327 6.37971ZM16.3125 6.59102L15.9355 5.66565L16.3125 6.59102ZM17.2557 5.62534L16.4826 4.99429L16.4826 4.99429L17.2557 5.62534ZM17.7782 5.0751L17.2612 4.22067L17.2612 4.22067L17.7782 5.0751ZM18.5476 4.96023L18.2952 5.92953L18.5476 4.96023ZM19.2042 5.33442L18.6432 6.16466L18.6432 6.16467L19.2042 5.33442ZM20.2225 6.02259L19.6614 6.85284L19.6768 6.86323L19.6926 6.87305L20.2225 6.02259ZM20.2225 6.02259L20.7835 5.19235L20.7682 5.18195L20.7524 5.17214L20.2225 6.02259ZM20.8359 6.5128L21.6497 5.92906L21.6497 5.92905L20.8359 6.5128ZM21.0127 7.22362L20.022 7.09654L20.022 7.09655L21.0127 7.22362ZM20.6977 7.95483L21.5809 8.41957L21.5809 8.41957L20.6977 7.95483ZM20.1645 9.23775L21.1635 9.21115L21.1635 9.21115L20.1645 9.23775ZM20.7597 10.1281L20.3559 11.045L20.3559 11.045L20.7597 10.1281ZM22.1292 10.1219L22.0359 9.1259L22.0359 9.1259L22.1292 10.1219ZM22.9004 10.1069L22.6486 11.0764L22.6486 11.0764L22.9004 10.1069ZM23.5044 10.5565L24.3602 10.0367L24.3602 10.0367L23.5044 10.5565ZM24.0427 13.2961L23.0553 13.1464L23.0553 13.1464L24.0427 13.2961ZM23.6544 13.9451L23.0553 13.1464L23.0553 13.1464L23.6544 13.9451ZM22.9363 14.2289L22.6459 13.2724L22.9363 14.2289ZM21.6687 14.7521L22.3884 15.4436L21.6687 14.7521ZM21.4552 15.8049L22.3884 15.4436L22.3884 15.4436L21.4552 15.8049ZM22.4326 16.7842L21.7921 17.5548L21.8323 17.5882L21.8757 17.6172L22.4326 16.7842ZM22.4326 16.7842L23.1013 16.0381L23.0485 15.9907L22.9896 15.9512L22.4326 16.7842ZM22.4326 16.7843L21.764 17.5304L21.7778 17.5429L21.7922 17.5548L22.4326 16.7843ZM22.9999 17.3381L22.1325 17.8382L22.1325 17.8382L22.9999 17.3381ZM23.1053 18.0635L24.078 18.2887L24.078 18.2887L23.1053 18.0635ZM22.7239 18.7531L23.5535 19.3078L23.5562 19.3037L22.7239 18.7531ZM22.7239 18.7531L21.8943 18.1985L21.8915 18.2026L22.7239 18.7531ZM22.043 19.7825L21.2106 19.232L21.2106 19.232L22.043 19.7825ZM21.5776 20.3819L20.978 19.5836L20.978 19.5836L21.5776 20.3819ZM20.8232 20.5729L20.978 19.5836L20.978 19.5836L20.8232 20.5729ZM20.1324 20.2663L19.6528 21.1461L19.6565 21.148L20.1324 20.2663ZM20.1324 20.2662L20.6119 19.3864L20.5895 19.3742L20.5664 19.3632L20.1324 20.2662ZM20.1323 20.2662L19.6564 21.148L19.6771 21.1592L19.6983 21.1693L20.1323 20.2662ZM18.8956 19.7381L18.8942 18.7374L18.8942 18.7374L18.8956 19.7381ZM17.9776 20.3505L18.8971 20.7389L18.8971 20.7389L17.9776 20.3505ZM17.9863 21.7151L18.9809 21.6159L18.9809 21.6159L17.9863 21.7151ZM18.0006 22.496L17.0332 22.2492L17.0332 22.2492L18.0006 22.496ZM17.5491 23.1043L18.0651 23.9594L18.0651 23.9594L17.5491 23.1043ZM14.8528 23.6456L14.6994 24.6351L14.6994 24.6351L14.8528 23.6456ZM14.2055 23.2577L15.0062 22.6561L15.0062 22.6561L14.2055 23.2577ZM13.9237 22.5308L14.8803 22.2383L13.9237 22.5308ZM13.4158 21.2666L12.713 21.9807L12.713 21.9807L13.4158 21.2666ZM12.336 21.0553L11.959 20.1299L11.959 20.1299L12.336 21.0553ZM11.3927 22.021L12.1642 22.6541L12.1659 22.6521L11.3927 22.021ZM11.3927 22.021L10.6212 21.388L10.6195 21.39L11.3927 22.021ZM10.8702 22.5713L10.3532 21.7168L10.3532 21.7169L10.8702 22.5713ZM10.1009 22.6862L9.84859 23.6555L9.84859 23.6555L10.1009 22.6862ZM9.44418 22.312L8.88313 23.1422L8.88313 23.1422L9.44418 22.312ZM8.42596 21.6238L7.78659 22.3953L7.8243 22.4266L7.8649 22.454L8.42596 21.6238ZM8.42595 21.6238L9.06531 20.8523L9.02761 20.821L8.98701 20.7935L8.42595 21.6238ZM7.81256 21.1336L8.6264 20.5498L8.6264 20.5498L7.81256 21.1336ZM7.63575 20.4228L6.64511 20.2957L7.63575 20.4228ZM7.95074 19.6915L8.83392 20.1563L8.83392 20.1563L7.95074 19.6915ZM8.48392 18.4086L7.48496 18.4352L7.48496 18.4352L8.48392 18.4086ZM7.88874 17.5183L8.29252 16.6013L8.29252 16.6013L7.88874 17.5183ZM6.51924 17.5244L6.42595 16.5284L6.37584 16.5333L6.32645 16.5432L6.51924 17.5244ZM6.51923 17.5244L6.61253 18.5205L6.66264 18.5156L6.71202 18.5057L6.51923 17.5244ZM5.74808 17.5394L5.4963 18.5089L5.49631 18.5089L5.74808 17.5394ZM5.14404 17.0898L4.28823 17.6096L4.28823 17.6096L5.14404 17.0898ZM4.93684 16.3466L3.9564 16.5434L4.93684 16.3466ZM4.6953 15.1172L5.67574 14.9204L4.6953 15.1172ZM4.60578 14.3501L5.59315 14.5L4.60578 14.3501ZM4.99391 13.7014L4.39468 12.9028L4.39468 12.9028L4.99391 13.7014ZM5.71242 13.4174L6.00275 14.3739L6.03346 14.3644L6.06351 14.353L5.71242 13.4174ZM5.71243 13.4174L5.4221 12.4609L5.39139 12.4703L5.36134 12.4817L5.71243 13.4174ZM6.98067 12.8939L6.26078 12.2026L6.26078 12.2026L6.98067 12.8939ZM7.19403 11.8415L8.12728 11.4803L8.12728 11.4803L7.19403 11.8415ZM6.21603 10.8615L5.57557 11.6321L5.57557 11.6321L6.21603 10.8615ZM5.6483 10.3072L6.51579 9.80726L6.51579 9.80726L5.6483 10.3072ZM5.54301 9.58228L6.51579 9.80726L6.51579 9.80726L5.54301 9.58228ZM5.92465 8.89208L6.757 9.44262L6.757 9.44262L5.92465 8.89208ZM6.60537 7.86301L7.43772 8.41355L7.43772 8.41355L6.60537 7.86301ZM7.07077 7.26356L6.47119 6.46525L6.47119 6.46525L7.07077 7.26356ZM7.82511 7.07257L7.97986 6.08328L7.97986 6.08328L7.82511 7.07257ZM8.51601 7.37927L9.0364 6.52295L9.01449 6.50965L8.99192 6.49749L8.51601 7.37927ZM8.51601 7.37927L7.99561 8.23558L8.01928 8.24995L8.0437 8.26298L8.51601 7.37927ZM8.51601 7.37927L8.99194 6.49749L8.98832 6.49556L8.51601 7.37927ZM9.75281 7.90739L9.75427 8.90816L9.75281 7.90739ZM10.6708 7.29509L9.75136 6.90663L9.75136 6.90663L10.6708 7.29509ZM10.6622 5.9308L11.6568 5.83164L11.6521 5.78245L11.6426 5.73399L10.6622 5.9308ZM10.6622 5.9308L9.66751 6.02997L9.67222 6.07915L9.68174 6.12761L10.6622 5.9308ZM10.6478 5.1506L11.6153 5.39716L11.6153 5.39716L10.6478 5.1506ZM11.0996 4.54196L10.5838 3.68675L10.5838 3.68675L11.0996 4.54196ZM13.7957 4.00079L13.6423 4.99028L13.6423 4.99029L13.7957 4.00079ZM15.6815 4.82299C15.5884 4.51406 15.4804 4.10372 15.2438 3.78706L13.6423 4.99028C13.6138 4.95222 13.6152 4.93652 13.6419 5.00873C13.6715 5.0887 13.7058 5.20102 13.7682 5.40806L15.6815 4.82299ZM15.9355 5.66565C16.0039 5.73322 15.9929 5.76699 15.9271 5.59369C15.8653 5.43087 15.7949 5.19933 15.6815 4.82299L13.7682 5.40806C13.8729 5.75568 13.9662 6.06711 14.0587 6.31084C14.1471 6.54408 14.2809 6.84796 14.5299 7.09378L15.9355 5.66565ZM15.9355 5.66565L15.9355 5.66565L14.5299 7.09378C15.0987 7.65533 15.9485 7.82161 16.6895 7.51639L15.9355 5.66565ZM16.4826 4.99429C16.237 5.29566 16.0861 5.47983 15.9688 5.60473C15.8449 5.73667 15.8478 5.70177 15.9355 5.66565L16.6895 7.51639C17.0125 7.38339 17.251 7.15525 17.4219 6.97337C17.5993 6.78445 17.8025 6.53422 18.0289 6.25638L16.4826 4.99429ZM17.2612 4.22067C16.9302 4.42238 16.6806 4.75126 16.4826 4.99429L18.0289 6.25638C18.1616 6.09355 18.2335 6.00599 18.2892 5.94544C18.339 5.89127 18.3343 5.9057 18.2952 5.92953L17.2612 4.22067ZM18.7999 3.99093C18.2778 3.85646 17.7229 3.93932 17.2612 4.22067L18.2952 5.92953L18.2952 5.92953L18.7999 3.99093ZM19.7653 4.50417C19.5066 4.32933 19.1742 4.08734 18.7999 3.99093L18.2952 5.92953C18.251 5.91814 18.2424 5.9057 18.3055 5.943C18.3761 5.9847 18.4698 6.04753 18.6432 6.16466L19.7653 4.50417ZM20.7835 5.19234L19.7653 4.50417L18.6432 6.16467L19.6614 6.85284L20.7835 5.19234ZM20.7524 5.17214L20.7524 5.17213L19.6926 6.87305L19.6926 6.87305L20.7524 5.17214ZM21.6497 5.92905C21.4154 5.6006 21.0522 5.3739 20.7835 5.19235L19.6614 6.85284C19.8415 6.97456 19.9381 7.04041 20.0053 7.09228C20.065 7.13842 20.0494 7.13495 20.022 7.09655L21.6497 5.92905ZM22.0033 7.3507C22.0694 6.84839 21.943 6.34038 21.6497 5.92906L20.022 7.09655L20.022 7.09654L22.0033 7.3507ZM21.5809 8.41957C21.7345 8.12823 21.9505 7.7521 22.0033 7.3507L20.022 7.09655C20.0283 7.04858 20.0407 7.03811 20.0086 7.10943C19.9729 7.18866 19.9175 7.29477 19.8145 7.49009L21.5809 8.41957ZM21.1635 9.21115C21.1657 9.30897 21.1331 9.32594 21.2085 9.15413C21.2797 8.99203 21.394 8.77404 21.5809 8.41957L19.8145 7.49008C19.642 7.81721 19.4867 8.11042 19.3797 8.35426C19.2769 8.58837 19.1574 8.90601 19.1656 9.26436L21.1635 9.21115ZM21.1635 9.21115L19.1656 9.26436C19.1832 10.0402 19.6471 10.7341 20.3559 11.045L21.1635 9.21115ZM22.0359 9.1259C21.6433 9.16427 21.4033 9.18707 21.23 9.19134C21.0477 9.19583 21.0756 9.17259 21.1635 9.21115L20.3559 11.045C20.6818 11.188 21.0172 11.1986 21.2716 11.1923C21.535 11.1858 21.8608 11.1533 22.2225 11.118L22.0359 9.1259ZM23.1522 9.13749C22.7697 9.03919 22.3531 9.0949 22.0359 9.1259L22.2225 11.118C22.4351 11.0972 22.5496 11.0865 22.6331 11.0835C22.7075 11.0809 22.6936 11.0879 22.6486 11.0764L23.1522 9.13749ZM24.3602 10.0367C24.0908 9.59002 23.6573 9.26729 23.1522 9.13749L22.6486 11.0764L22.6486 11.0764L24.3602 10.0367ZM24.6921 11.103C24.6306 10.7902 24.5643 10.3749 24.3602 10.0367L22.6486 11.0764C22.6247 11.0366 22.6274 11.0213 22.6463 11.0933C22.6674 11.1741 22.69 11.287 22.7312 11.4966L24.6921 11.103ZM24.9337 12.3326L24.6921 11.103L22.7312 11.4966L22.9728 12.7262L24.9337 12.3326ZM25.0301 13.4459C25.0907 13.0546 24.9951 12.6453 24.9337 12.3326L22.9728 12.7262C23.014 12.9358 23.0357 13.0488 23.0467 13.1316C23.0566 13.2055 23.0482 13.1923 23.0553 13.1464L25.0301 13.4459ZM24.2535 14.7437C24.6713 14.4287 24.9501 13.9628 25.0301 13.4459L23.0553 13.1464L23.0553 13.1464L24.2535 14.7437ZM23.2266 15.1854C23.5314 15.0916 23.9373 14.9822 24.2535 14.7437L23.0553 13.1464C23.0925 13.1184 23.108 13.1195 23.0382 13.1458C22.96 13.1753 22.8502 13.2095 22.6459 13.2724L23.2266 15.1854ZM22.3884 15.4436C22.3217 15.5131 22.2872 15.5024 22.4573 15.4361C22.6191 15.3732 22.8493 15.3016 23.2266 15.1854L22.6459 13.2724C22.2984 13.3794 21.9851 13.4753 21.7393 13.571C21.502 13.6634 21.1961 13.8026 20.9489 14.0605L22.3884 15.4436ZM22.3884 15.4436L20.9489 14.0605C20.4113 14.6217 20.2449 15.4424 20.522 16.1663L22.3884 15.4436ZM23.0731 16.0137C22.7665 15.7584 22.5785 15.6011 22.4515 15.4788C22.3169 15.3492 22.3534 15.3523 22.3884 15.4436L20.522 16.1663C20.65 16.5005 20.8804 16.7478 21.0638 16.9244C21.2549 17.1083 21.5092 17.3192 21.7921 17.5548L23.0731 16.0137ZM22.9896 15.9512L22.9896 15.9512L21.8757 17.6172L21.8757 17.6173L22.9896 15.9512ZM23.1013 16.0381L23.1013 16.0381L21.7639 17.5304L21.764 17.5304L23.1013 16.0381ZM23.8673 16.8379C23.6667 16.4875 23.3251 16.2235 23.0731 16.0137L21.7922 17.5548C21.9611 17.6955 22.0524 17.7721 22.1153 17.8315C22.1719 17.885 22.1565 17.8801 22.1325 17.8382L23.8673 16.8379ZM24.078 18.2887C24.1937 17.7951 24.1184 17.2767 23.8673 16.8379L22.1325 17.8382L22.1325 17.8382L24.078 18.2887ZM23.5562 19.3037C23.7358 19.0322 23.9857 18.6826 24.078 18.2887L22.1325 17.8382C22.1433 17.7922 22.1564 17.783 22.1187 17.8486C22.0763 17.9225 22.0119 18.0206 21.8915 18.2026L23.5562 19.3037ZM23.5535 19.3078L23.5535 19.3078L21.8943 18.1985L21.8943 18.1985L23.5535 19.3078ZM22.8753 20.3331L23.5562 19.3037L21.8915 18.2026L21.2106 19.232L22.8753 20.3331ZM22.1772 21.1802C22.4866 20.9466 22.7023 20.5945 22.8753 20.3331L21.2106 19.232C21.0947 19.4072 21.0319 19.5014 20.9824 19.5672C20.9382 19.6261 20.9414 19.6112 20.978 19.5836L22.1772 21.1802ZM20.6684 21.5622C21.2014 21.6439 21.7456 21.5061 22.1772 21.1802L20.978 19.5836L20.978 19.5836L20.6684 21.5622ZM19.6565 21.148C19.9313 21.2961 20.2863 21.5037 20.6684 21.5622L20.978 19.5836C21.0231 19.5906 21.0329 19.6021 20.9664 19.5713C20.892 19.5368 20.7925 19.4837 20.6083 19.3845L19.6565 21.148ZM19.6528 21.146L19.6528 21.1461L20.6119 19.3864L20.6119 19.3864L19.6528 21.146ZM19.6983 21.1693L19.6983 21.1693L20.5664 19.3632L20.5664 19.3632L19.6983 21.1693ZM18.8971 20.7389C18.8023 20.7394 18.7865 20.7083 18.9509 20.7823C19.1065 20.8524 19.3156 20.9644 19.6564 21.148L20.6083 19.3845C20.294 19.2152 20.0117 19.0624 19.7762 18.9563C19.5496 18.8543 19.2429 18.7356 18.8942 18.7374L18.8971 20.7389ZM18.8971 20.7389L18.8971 20.7389L18.8942 18.7374C18.094 18.7415 17.3716 19.2234 17.0582 19.962L18.8971 20.7389ZM18.9809 21.6159C18.9435 21.2243 18.921 20.983 18.9165 20.8087C18.9118 20.6231 18.9348 20.65 18.8971 20.7389L17.0582 19.962C16.9211 20.2854 16.9123 20.6179 16.9187 20.8676C16.9254 21.1286 16.957 21.4525 16.9916 21.8143L18.9809 21.6159ZM18.968 22.7427C19.0671 22.3586 19.0117 21.9375 18.9809 21.6159L16.9916 21.8143C17.0122 22.0298 17.023 22.1469 17.0259 22.2323C17.0286 22.3093 17.0213 22.2954 17.0332 22.2492L18.968 22.7427ZM18.0651 23.9594C18.513 23.6872 18.8372 23.2504 18.968 22.7427L17.0332 22.2492L17.0332 22.2492L18.0651 23.9594ZM16.9984 24.2961C17.3112 24.2333 17.7264 24.1652 18.0651 23.9594L17.0332 22.2492C17.073 22.225 17.0883 22.2277 17.0162 22.2469C16.9353 22.2684 16.8225 22.2915 16.6128 22.3336L16.9984 24.2961ZM15.8121 24.5342L16.9984 24.2961L16.6128 22.3336L15.4265 22.5717L15.8121 24.5342ZM14.6994 24.6351C15.09 24.6944 15.4993 24.597 15.8121 24.5342L15.4265 22.5717C15.2169 22.6138 15.1039 22.636 15.0211 22.6474C14.9472 22.6575 14.9603 22.6491 15.0062 22.6561L14.6994 24.6351ZM13.4047 23.8593C13.7176 24.2781 14.1825 24.5566 14.6994 24.6351L15.0062 22.6561L15.0062 22.6561L13.4047 23.8593ZM12.967 22.8234C13.0601 23.1323 13.168 23.5427 13.4047 23.8593L15.0062 22.6561C15.0347 22.6941 15.0333 22.7098 15.0066 22.6376C14.977 22.5577 14.9427 22.4453 14.8803 22.2383L12.967 22.8234ZM12.713 21.9807C12.6445 21.9131 12.6556 21.8793 12.7214 22.0526C12.7831 22.2154 12.8535 22.447 12.967 22.8234L14.8803 22.2383C14.7756 21.8907 14.6823 21.5792 14.5898 21.3355C14.5013 21.1022 14.3676 20.7983 14.1185 20.5525L12.713 21.9807ZM12.713 21.9807L12.713 21.9807L14.1185 20.5525C13.5497 19.991 12.7 19.8247 11.959 20.1299L12.713 21.9807ZM12.1659 22.6521C12.4115 22.3507 12.5623 22.1665 12.6797 22.0416C12.8036 21.9096 12.8007 21.9445 12.713 21.9807L11.959 20.1299C11.6361 20.2629 11.3975 20.491 11.2266 20.6729C11.0492 20.8619 10.846 21.1121 10.6196 21.39L12.1659 22.6521ZM12.1642 22.6541L12.1642 22.6541L10.6212 21.3879L10.6212 21.388L12.1642 22.6541ZM11.3872 23.4258C11.7182 23.224 11.9678 22.8951 12.1658 22.6521L10.6195 21.39C10.4868 21.5528 10.4149 21.6404 10.3592 21.7009C10.3094 21.7551 10.3141 21.7407 10.3532 21.7168L11.3872 23.4258ZM9.84859 23.6555C10.3706 23.7899 10.9255 23.7071 11.3872 23.4257L10.3532 21.7169L10.3532 21.7169L9.84859 23.6555ZM8.88313 23.1422C9.14185 23.317 9.47428 23.5591 9.84859 23.6555L10.3532 21.7169C10.3974 21.7282 10.406 21.7407 10.3429 21.7034C10.2723 21.6617 10.1786 21.5988 10.0052 21.4817L8.88313 23.1422ZM7.8649 22.454L8.88313 23.1422L10.0052 21.4817L8.98702 20.7936L7.8649 22.454ZM7.78659 22.3953L7.78659 22.3953L9.06532 20.8523L9.06531 20.8523L7.78659 22.3953ZM6.99873 21.7173C7.23298 22.0458 7.59625 22.2725 7.86489 22.454L8.98701 20.7935C8.8069 20.6718 8.71029 20.606 8.64314 20.5541C8.58341 20.508 8.59901 20.5114 8.6264 20.5498L6.99873 21.7173ZM6.64511 20.2957C6.57902 20.798 6.70538 21.306 6.99873 21.7173L8.6264 20.5498L8.6264 20.5498L6.64511 20.2957ZM7.06756 19.2268C6.91393 19.5181 6.69793 19.8943 6.64511 20.2957L8.6264 20.5498C8.62009 20.5978 8.6077 20.6083 8.63981 20.537C8.67548 20.4577 8.73093 20.3516 8.83392 20.1563L7.06756 19.2268ZM7.48496 18.4352C7.48274 18.3374 7.51532 18.3204 7.43989 18.4922C7.36872 18.6543 7.25447 18.8723 7.06756 19.2268L8.83392 20.1563C9.00641 19.8292 9.16172 19.536 9.26877 19.2921C9.37155 19.058 9.49103 18.7404 9.48288 18.3821L7.48496 18.4352ZM7.48496 18.4352L7.48496 18.4352L9.48288 18.3821C9.46523 17.6062 9.00133 16.9122 8.29252 16.6013L7.48496 18.4352ZM6.61254 18.5205C7.00519 18.4821 7.2451 18.4593 7.41839 18.455C7.60069 18.4505 7.57287 18.4738 7.48497 18.4352L8.29252 16.6013C7.96661 16.4583 7.6312 16.4478 7.37683 16.4541C7.11346 16.4605 6.78762 16.493 6.42595 16.5284L6.61254 18.5205ZM6.71202 18.5057L6.71203 18.5057L6.32645 16.5432L6.32645 16.5432L6.71202 18.5057ZM5.49631 18.5089C5.87877 18.6072 6.29537 18.5515 6.61253 18.5205L6.42594 16.5284C6.21338 16.5491 6.09887 16.5599 6.01544 16.5629C5.94102 16.5655 5.95492 16.5585 5.99985 16.57L5.49631 18.5089ZM4.28823 17.6096C4.55763 18.0563 4.99122 18.3791 5.4963 18.5089L5.99986 16.57L5.99985 16.57L4.28823 17.6096ZM3.9564 16.5434C4.01786 16.8562 4.08423 17.2714 4.28823 17.6096L5.99986 16.57C6.02382 16.6097 6.02107 16.6251 6.00222 16.553C5.98109 16.4722 5.95848 16.3594 5.91729 16.1497L3.9564 16.5434ZM3.71486 15.314L3.9564 16.5434L5.91729 16.1497L5.67574 14.9204L3.71486 15.314ZM3.61841 14.2001C3.55771 14.5916 3.65338 15.0011 3.71486 15.314L5.67574 14.9204C5.63454 14.7106 5.61278 14.5976 5.60176 14.5148C5.59193 14.4409 5.60028 14.454 5.59315 14.5L3.61841 14.2001ZM4.39468 12.9028C3.97713 13.2178 3.69854 13.6834 3.61841 14.2001L5.59315 14.5L5.59315 14.5L4.39468 12.9028ZM5.42209 12.4609C5.1172 12.5547 4.71103 12.6642 4.39468 12.9028L5.59315 14.5C5.55598 14.528 5.54047 14.5269 5.61025 14.5006C5.6885 14.4711 5.79842 14.4368 6.00275 14.3739L5.42209 12.4609ZM5.36134 12.4817L5.36133 12.4817L6.06351 14.353L6.06352 14.353L5.36134 12.4817ZM6.26078 12.2026C6.32744 12.133 6.36196 12.1437 6.19175 12.21C6.02996 12.273 5.79957 12.3446 5.4221 12.4609L6.00276 14.3739C6.35044 14.2668 6.66392 14.1709 6.90983 14.0752C7.14733 13.9827 7.45338 13.8433 7.70055 13.5852L6.26078 12.2026ZM6.26078 12.2026L6.26078 12.2026L7.70055 13.5852C8.2378 13.0242 8.40409 12.204 8.12728 11.4803L6.26078 12.2026ZM5.57557 11.6321C5.8824 11.8876 6.07045 12.0449 6.19754 12.1673C6.33225 12.297 6.2957 12.2939 6.26078 12.2026L8.12728 11.4803C7.99936 11.1459 7.76881 10.8985 7.58527 10.7218C7.39411 10.5377 7.13966 10.3267 6.8565 10.0909L5.57557 11.6321ZM4.7808 10.8071C4.98139 11.1578 5.32335 11.4221 5.57557 11.6321L6.8565 10.0909C6.68741 9.95015 6.59602 9.87347 6.53307 9.81399C6.47641 9.76046 6.49182 9.76535 6.51579 9.80726L4.7808 10.8071ZM4.57023 9.3573C4.45474 9.85055 4.52998 10.3686 4.7808 10.8071L6.51579 9.80726L4.57023 9.3573ZM5.0923 8.34153C4.91261 8.61319 4.66251 8.96313 4.57023 9.3573L6.51579 9.80726C6.505 9.85335 6.49189 9.86259 6.52966 9.79685C6.57212 9.72295 6.63653 9.62474 6.757 9.44262L5.0923 8.34153ZM5.77302 7.31247L5.0923 8.34153L6.757 9.44262L7.43772 8.41355L5.77302 7.31247ZM6.47119 6.46525C6.16173 6.69892 5.946 7.05096 5.77302 7.31247L7.43772 8.41355C7.55362 8.23835 7.61648 8.14408 7.66593 8.07829C7.71016 8.01943 7.70692 8.03425 7.67036 8.06186L6.47119 6.46525ZM7.97986 6.08328C7.44688 6.00162 6.90276 6.13939 6.47119 6.46525L7.67036 8.06186L7.67036 8.06186L7.97986 6.08328ZM8.99192 6.49749C8.71701 6.34939 8.36203 6.14184 7.97986 6.08328L7.67036 8.06186C7.62521 8.05494 7.61542 8.04342 7.68196 8.07423C7.75635 8.10866 7.8559 8.16181 8.04009 8.26104L8.99192 6.49749ZM9.0364 6.52295L9.0364 6.52295L7.99561 8.23558L7.99561 8.23558L9.0364 6.52295ZM8.98832 6.49556L8.98832 6.49556L8.0437 8.26298L8.0437 8.26298L8.98832 6.49556ZM9.75136 6.90663C9.84608 6.90613 9.86197 6.93726 9.69753 6.8632C9.54187 6.79309 9.33283 6.68115 8.99193 6.4975L8.04009 8.26105C8.35438 8.43036 8.63673 8.58315 8.87217 8.6892C9.09884 8.79129 9.40553 8.90999 9.75427 8.90816L9.75136 6.90663ZM9.75136 6.90663L9.75136 6.90663L9.75427 8.90816C10.5544 8.90396 11.2768 8.42214 11.5901 7.68355L9.75136 6.90663ZM9.66751 6.02997C9.70496 6.42152 9.72744 6.66264 9.7319 6.83693C9.73665 7.02242 9.71365 6.99549 9.75136 6.90663L11.5901 7.68356C11.7273 7.36022 11.7361 7.02776 11.7297 6.77802C11.723 6.51709 11.6914 6.1933 11.6568 5.83164L9.66751 6.02997ZM9.68174 6.12761L9.68174 6.12761L11.6426 5.73399L11.6426 5.73399L9.68174 6.12761ZM9.68034 4.90403C9.58145 5.28794 9.63678 5.70866 9.66751 6.02997L11.6568 5.83163C11.6363 5.6163 11.6255 5.49933 11.6226 5.41405C11.6199 5.33709 11.6272 5.35103 11.6153 5.39716L9.68034 4.90403ZM10.5838 3.68675C10.1356 3.95898 9.81119 4.39605 9.68034 4.90403L11.6153 5.39716L11.6153 5.39717L10.5838 3.68675ZM11.6499 3.35035C11.3372 3.41311 10.9223 3.48117 10.5838 3.68675L11.6153 5.39717C11.5755 5.42134 11.5602 5.41863 11.6323 5.39946C11.7131 5.37799 11.8259 5.35489 12.0354 5.31283L11.6499 3.35035ZM12.8364 3.11217L11.6499 3.35035L12.0354 5.31283L13.222 5.07465L12.8364 3.11217ZM13.9491 3.0113C13.5584 2.952 13.1492 3.04939 12.8364 3.11217L13.222 5.07465C13.4316 5.03257 13.5446 5.01034 13.6274 4.99898C13.7013 4.98884 13.6882 4.99726 13.6423 4.99028L13.9491 3.0113ZM15.2438 3.78706C14.9309 3.36831 14.466 3.08978 13.9491 3.0113L13.6423 4.99029L13.6423 4.99029L15.2438 3.78706ZM17.1471 13.2565C17.4596 14.8469 16.4366 16.3751 14.8868 16.6862L15.2723 18.6487C17.9235 18.1165 19.6298 15.5188 19.108 12.8629L17.1471 13.2565ZM13.7617 10.9601C15.3116 10.649 16.8346 11.6661 17.1471 13.2565L19.108 12.8629C18.5862 10.2071 16.0273 8.46549 13.3762 8.99766L13.7617 10.9601ZM11.5014 14.3898C11.1889 12.7994 12.2119 11.2713 13.7617 10.9601L13.3762 8.99766C10.725 9.52983 9.01872 12.1276 9.54053 14.7834L11.5014 14.3898ZM14.8868 16.6862C13.3369 16.9973 11.8139 15.9802 11.5014 14.3898L9.54053 14.7834C10.0623 17.4393 12.6212 19.1809 15.2723 18.6487L14.8868 16.6862Z" fill="white"/>
</svg>
