<svg width="29" height="29" viewBox="0 0 29 29" fill="none" xmlns="http://www.w3.org/2000/svg">
<g clip-path="url(#clip0_253_910)">
<path d="M14.5 26.5833C7.82633 26.5833 2.41663 21.1736 2.41663 14.5C2.41663 7.82638 7.82633 2.41667 14.5 2.41667C21.1736 2.41667 26.5833 7.82638 26.5833 14.5C26.5833 21.1736 21.1736 26.5833 14.5 26.5833ZM14.5 24.1667C17.0637 24.1667 19.5225 23.1482 21.3353 21.3354C23.1482 19.5225 24.1666 17.0638 24.1666 14.5C24.1666 11.9362 23.1482 9.47749 21.3353 7.66464C19.5225 5.85178 17.0637 4.83333 14.5 4.83333C11.9362 4.83333 9.47745 5.85178 7.66459 7.66464C5.85174 9.47749 4.83329 11.9362 4.83329 14.5C4.83329 17.0638 5.85174 19.5225 7.66459 21.3354C9.47745 23.1482 11.9362 24.1667 14.5 24.1667ZM15.7083 14.5H20.5416V16.9167H13.2916V8.45833H15.7083V14.5Z" fill="white"/>
</g>
<defs>
<clipPath id="clip0_253_910">
<rect width="29" height="29" fill="white"/>
</clipPath>
</defs>
</svg>
